<svg xmlns="http://www.w3.org/2000/svg" width="400" height="400" viewBox="0 0 400 400"><path d="M200 24c65 24 130 36 160 48v138c0 85-95 135-160 170-65-35-160-85-160-170V72c30-12 95-24 160-48"/><path fill="#111" d="M200 46c55 20 105 30 130 40v119c0 60-75 100-130 131-55-31-130-71-130-131V86c25-10 75-20 130-40"/><rect width="164" height="136" x="118" y="178" fill="#fff" rx="20"/><path fill="none" stroke="#fff" stroke-linecap="round" stroke-width="20" d="M150 178v-40c0-38 100-38 100 0v40"/><path d="M200 214c-28 0-44 18-44 42 0 18 10 30 24 36 2 1 3 4 1 6-5 5-3 16 5 20 0 2 0 6-2 8s4 8 16 8 18-6 16-8-2-6-2-8c8-4 10-15 5-20-2-2-1-5 1-6 14-6 24-18 24-36 0-24-16-42-44-42"/></svg>